<mxfile host="app.diagrams.net" agent="Mozilla/5.0 (Windows NT 10.0; Win64; x64) AppleWebKit/537.36 (KHTML, like Gecko) Chrome/139.0.0.0 Safari/537.36" version="28.1.1">
  <diagram name="Page-1" id="TAsea5r_ZzH9QRnHOP3f">
    <mxGraphModel dx="872" dy="473" grid="1" gridSize="10" guides="1" tooltips="1" connect="1" arrows="1" fold="1" page="1" pageScale="1" pageWidth="850" pageHeight="1100" math="0" shadow="0">
      <root>
        <mxCell id="0" />
        <mxCell id="1" parent="0" />
        <mxCell id="drGoMams4xyPhHiyWI-A-3" value="┌────────────────────────┐&#xa;           │   RAM &gt;= 8 GB ?        │&#xa;           └───────────┬────────────┘&#xa;                       │ Yes&#xa;                       │&#xa;            ┌──────────▼──────────┐&#xa;            │ Storage &gt;= 512 GB ? │&#xa;            └──────────┬──────────┘&#xa;                       │ Yes&#xa;                       │&#xa;             ┌─────────▼───────────┐&#xa;             │ Price &gt;= 600 ?      │&#xa;             └─────────┬───────────┘&#xa;                       │ Yes&#xa;                       ▼&#xa;                  ┌───────────┐&#xa;                  │ Recommend │&#xa;                  │   = Yes   │&#xa;                  └───────────┘&#xa;                       │ No&#xa;                       ▼&#xa;                  ┌───────────┐&#xa;                  │ Recommend │&#xa;                  │   = No    │&#xa;                  └───────────┘" style="text;whiteSpace=wrap;" vertex="1" parent="1">
          <mxGeometry x="150" y="190" width="420" height="480" as="geometry" />
        </mxCell>
      </root>
    </mxGraphModel>
  </diagram>
</mxfile>
